<?xml version="1.0" standalone="no"?>
<!DOCTYPE svg PUBLIC "-//W3C//DTD SVG 20010904//EN"
 "http://www.w3.org/TR/2001/REC-SVG-20010904/DTD/svg10.dtd">
<svg version="1.0" xmlns="http://www.w3.org/2000/svg"
 width="1063.000000pt" height="574.000000pt" viewBox="0 0 1063.000000 574.000000"
 preserveAspectRatio="xMidYMid meet">

<g transform="translate(0.000000,574.000000) scale(0.100000,-0.100000)"
fill="#000000" stroke="none">
<path d="M5299 5673 c-13 -16 -12 -17 4 -4 16 13 21 21 13 21 -2 0 -10 -8 -17
-17z"/>
<path d="M5239 5593 c-13 -16 -12 -17 4 -4 9 7 17 15 17 17 0 8 -8 3 -21 -13z"/>
<path d="M5209 5553 c-13 -16 -12 -17 4 -4 9 7 17 15 17 17 0 8 -8 3 -21 -13z"/>
<path d="M5179 5513 c-13 -16 -12 -17 4 -4 9 7 17 15 17 17 0 8 -8 3 -21 -13z"/>
<path d="M5148 5473 c-18 -21 -31 -43 -25 -43 2 0 13 14 25 30 25 33 24 41 0
13z"/>
<path d="M5079 5383 c-13 -16 -12 -17 4 -4 9 7 17 15 17 17 0 8 -8 3 -21 -13z"/>
<path d="M5030 5320 c-17 -22 -29 -40 -27 -40 3 0 20 18 37 40 17 22 29 40 27
40 -3 0 -20 -18 -37 -40z"/>
<path d="M4964 5233 c-15 -20 -23 -33 -16 -29 13 8 56 66 49 66 -3 0 -17 -17
-33 -37z"/>
<path d="M4919 5173 c-13 -16 -12 -17 4 -4 16 13 21 21 13 21 -2 0 -10 -8 -17
-17z"/>
<path d="M4889 5133 c-13 -16 -12 -17 4 -4 9 7 17 15 17 17 0 8 -8 3 -21 -13z"/>
<path d="M4859 5093 c-13 -16 -12 -17 4 -4 16 13 21 21 13 21 -2 0 -10 -8 -17
-17z"/>
<path d="M4819 5043 c-13 -16 -12 -17 4 -4 16 13 21 21 13 21 -2 0 -10 -8 -17
-17z"/>
<path d="M4789 5003 c-13 -16 -12 -17 4 -4 9 7 17 15 17 17 0 8 -8 3 -21 -13z"/>
<path d="M4759 4963 c-13 -16 -12 -17 4 -4 16 13 21 21 13 21 -2 0 -10 -8 -17
-17z"/>
<path d="M4729 4923 c-13 -16 -12 -17 4 -4 16 13 21 21 13 21 -2 0 -10 -8 -17
-17z"/>
<path d="M4699 4883 c-13 -16 -12 -17 4 -4 16 13 21 21 13 21 -2 0 -10 -8 -17
-17z"/>
<path d="M4650 4820 c-17 -22 -29 -40 -27 -40 3 0 20 18 37 40 17 22 29 40 27
40 -3 0 -20 -18 -37 -40z"/>
<path d="M4599 4753 c-13 -16 -12 -17 4 -4 16 13 21 21 13 21 -2 0 -10 -8 -17
-17z"/>
<path d="M4505 4630 c-42 -55 -74 -100 -71 -100 2 0 35 39 72 88 36 48 71 93
77 100 5 6 7 12 4 12 -4 0 -40 -45 -82 -100z"/>
<path d="M4409 4503 c-13 -16 -12 -17 4 -4 16 13 21 21 13 21 -2 0 -10 -8 -17
-17z"/>
<path d="M4379 4463 c-13 -16 -12 -17 4 -4 16 13 21 21 13 21 -2 0 -10 -8 -17
-17z"/>
<path d="M4330 4400 c-17 -22 -29 -40 -27 -40 3 0 20 18 37 40 17 22 29 40 27
40 -3 0 -20 -18 -37 -40z"/>
<path d="M4279 4333 c-13 -16 -12 -17 4 -4 16 13 21 21 13 21 -2 0 -10 -8 -17
-17z"/>
<path d="M4249 4293 c-29 -35 -41 -53 -36 -53 2 0 17 16 31 35 28 36 31 49 5
18z"/>
<path d="M4104 4103 c-142 -187 -160 -210 -137 -188 26 26 246 315 239 315 -2
0 -49 -57 -102 -127z"/>
<path d="M3914 3853 c-15 -20 -23 -33 -16 -29 13 8 56 66 49 66 -3 0 -17 -17
-33 -37z"/>
<path d="M3850 3770 c-17 -22 -29 -40 -27 -40 3 0 20 18 37 40 17 22 29 40 27
40 -3 0 -20 -18 -37 -40z"/>
<path d="M3799 3703 c-13 -16 -12 -17 4 -4 16 13 21 21 13 21 -2 0 -10 -8 -17
-17z"/>
<path d="M3719 3598 c-35 -46 -85 -111 -112 -145 l-49 -63 -30 16 c-16 8 -32
13 -35 11 -2 -3 5 -8 17 -12 30 -9 88 -63 106 -96 8 -16 18 -45 23 -66 7 -28
9 -31 10 -13 1 28 -28 93 -59 131 l-21 26 111 146 c61 81 109 147 106 147 -3
0 -33 -37 -67 -82z"/>
<path d="M3352 3422 c-7 -5 16 -7 50 -4 85 5 96 10 23 11 -33 0 -66 -3 -73 -7z"/>
<path d="M3276 3378 c-41 -34 -76 -97 -75 -138 0 -16 5 -9 13 21 14 52 41 91
88 126 18 12 28 23 22 23 -5 0 -27 -14 -48 -32z"/>
<path d="M3420 3203 c0 -4 39 -34 85 -66 47 -32 85 -62 85 -68 0 -5 7 -9 14
-9 8 0 34 -13 58 -29 63 -42 229 -133 234 -128 3 2 -50 35 -116 72 -66 38
-131 78 -144 90 -13 12 -31 25 -40 28 -8 3 -52 31 -96 62 -44 31 -80 53 -80
48z"/>
<path d="M3642 3175 c0 -16 2 -22 5 -12 2 9 2 23 0 30 -3 6 -5 -1 -5 -18z"/>
<path d="M3202 3160 c0 -14 2 -19 5 -12 2 6 2 18 0 25 -3 6 -5 1 -5 -13z"/>
<path d="M3626 3125 c-9 -26 -7 -32 5 -12 6 10 9 21 6 23 -2 3 -7 -2 -11 -11z"/>
<path d="M3210 3127 c0 -30 61 -102 107 -126 42 -21 37 -11 -9 18 -25 16 -57
49 -72 73 -14 23 -26 39 -26 35z"/>
<path d="M3545 3024 c-16 -14 -21 -21 -10 -16 30 16 61 41 50 41 -5 0 -23 -11
-40 -25z"/>
<path d="M3487 2994 c-3 -3 -34 -6 -69 -7 -54 0 -58 -1 -28 -8 19 -4 52 -4 73
1 37 8 61 20 40 20 -5 0 -12 -3 -16 -6z"/>
<path d="M3925 2886 c26 -17 193 -92 225 -100 l25 -6 -25 12 c-76 37 -234 108
-239 108 -3 0 3 -6 14 -14z"/>
<path d="M4185 2772 c27 -29 464 -154 580 -166 46 -5 45 -4 -15 10 -222 50
-370 93 -555 160 -14 5 -17 4 -10 -4z"/>
<path d="M4850 2590 c19 -5 67 -12 105 -15 39 -4 73 -9 78 -12 4 -2 7 0 7 4 0
5 -44 14 -97 21 -109 14 -146 14 -93 2z"/>
<path d="M5051 2566 c3 -3 73 -9 155 -12 82 -4 147 -4 144 -1 -3 3 -72 8 -155
12 -82 4 -147 5 -144 1z"/>
<path d="M5212 2463 c-12 -32 -15 -50 -8 -40 16 21 66 23 66 2 0 -8 4 -15 9
-15 5 0 0 25 -12 55 -11 30 -23 55 -27 55 -4 0 -17 -26 -28 -57z m42 -4 c-10
-16 -36 -10 -30 7 3 9 6 21 6 27 0 7 7 3 15 -7 8 -10 12 -23 9 -27z"/>
<path d="M633 2254 c-7 -19 7 -46 28 -52 8 -2 5 3 -6 11 -17 14 -18 19 -7 36
7 13 8 21 2 21 -6 0 -13 -7 -17 -16z"/>
<path d="M674 2262 c28 -47 4 -109 -31 -81 -16 13 -17 12 -4 -3 17 -22 25 -22
45 -2 21 20 20 68 -1 85 -12 10 -15 10 -9 1z"/>
<path d="M720 2245 c-17 -45 16 -99 46 -74 20 16 15 91 -6 96 -12 4 -12 3 -2
-5 19 -13 12 -87 -8 -87 -11 0 -15 12 -15 48 0 26 -1 47 -3 47 -1 0 -7 -11
-12 -25z"/>
<path d="M889 2253 c0 -10 -2 -31 -2 -48 -1 -19 -7 -30 -17 -30 -19 0 -26 45
-8 57 10 8 10 9 -2 5 -19 -5 -25 -44 -10 -62 6 -7 20 -13 31 -12 16 1 19 9 19
54 0 29 -2 53 -5 53 -3 0 -5 -8 -6 -17z"/>
<path d="M924 2215 c-11 -45 30 -72 57 -37 13 15 12 16 -4 3 -16 -12 -20 -12
-35 2 -15 16 -14 17 17 17 25 0 32 4 29 17 -2 9 -9 18 -16 19 -7 1 -8 0 -2 -3
18 -8 11 -23 -11 -23 -15 0 -19 5 -15 15 3 8 1 15 -4 15 -5 0 -12 -11 -16 -25z"/>
<path d="M1017 2233 c-4 -3 -7 -19 -7 -34 0 -27 23 -45 42 -33 6 4 8 1 6 -7
-3 -8 -16 -13 -29 -11 -17 2 -21 0 -12 -9 6 -6 20 -8 32 -4 18 5 21 14 21 56
0 45 -2 49 -23 49 -13 0 -27 -3 -30 -7z m41 -30 c-2 -17 -9 -28 -18 -28 -9 0
-16 11 -18 28 -3 22 1 27 18 27 17 0 21 -5 18 -27z"/>
<path d="M558 1213 c12 -2 30 -2 40 0 9 3 -1 5 -23 4 -22 0 -30 -2 -17 -4z"/>
<path d="M698 1213 c6 -2 18 -2 25 0 6 3 1 5 -13 5 -14 0 -19 -2 -12 -5z"/>
<path d="M858 1213 c12 -2 30 -2 40 0 9 3 -1 5 -23 4 -22 0 -30 -2 -17 -4z"/>
<path d="M1008 1213 c12 -2 30 -2 40 0 9 3 -1 5 -23 4 -22 0 -30 -2 -17 -4z"/>
<path d="M1158 1213 c12 -2 30 -2 40 0 9 3 -1 5 -23 4 -22 0 -30 -2 -17 -4z"/>
<path d="M1308 1213 c12 -2 30 -2 40 0 9 3 -1 5 -23 4 -22 0 -30 -2 -17 -4z"/>
<path d="M1458 1213 c12 -2 30 -2 40 0 9 3 -1 5 -23 4 -22 0 -30 -2 -17 -4z"/>
<path d="M1608 1213 c12 -2 30 -2 40 0 9 3 -1 5 -23 4 -22 0 -30 -2 -17 -4z"/>
<path d="M1758 1213 c12 -2 30 -2 40 0 9 3 -1 5 -23 4 -22 0 -30 -2 -17 -4z"/>
<path d="M1908 1213 c12 -2 30 -2 40 0 9 3 -1 5 -23 4 -22 0 -30 -2 -17 -4z"/>
<path d="M2078 1213 c6 -2 18 -2 25 0 6 3 1 5 -13 5 -14 0 -19 -2 -12 -5z"/>
<path d="M2208 1213 c12 -2 30 -2 40 0 9 3 -1 5 -23 4 -22 0 -30 -2 -17 -4z"/>
<path d="M2388 1213 c7 -3 16 -2 19 1 4 3 -2 6 -13 5 -11 0 -14 -3 -6 -6z"/>
<path d="M2508 1213 c12 -2 30 -2 40 0 9 3 -1 5 -23 4 -22 0 -30 -2 -17 -4z"/>
<path d="M2648 1213 c7 -3 16 -2 19 1 4 3 -2 6 -13 5 -11 0 -14 -3 -6 -6z"/>
<path d="M2808 1213 c12 -2 30 -2 40 0 9 3 -1 5 -23 4 -22 0 -30 -2 -17 -4z"/>
<path d="M2948 1213 c6 -2 18 -2 25 0 6 3 1 5 -13 5 -14 0 -19 -2 -12 -5z"/>
<path d="M3108 1213 c12 -2 30 -2 40 0 9 3 -1 5 -23 4 -22 0 -30 -2 -17 -4z"/>
<path d="M3253 1213 c9 -2 25 -2 35 0 9 3 1 5 -18 5 -19 0 -27 -2 -17 -5z"/>
<path d="M3408 1213 c12 -2 30 -2 40 0 9 3 -1 5 -23 4 -22 0 -30 -2 -17 -4z"/>
<path d="M3553 1213 c9 -2 25 -2 35 0 9 3 1 5 -18 5 -19 0 -27 -2 -17 -5z"/>
<path d="M3708 1213 c12 -2 30 -2 40 0 9 3 -1 5 -23 4 -22 0 -30 -2 -17 -4z"/>
<path d="M3858 1213 c12 -2 30 -2 40 0 9 3 -1 5 -23 4 -22 0 -30 -2 -17 -4z"/>
<path d="M4008 1213 c12 -2 30 -2 40 0 9 3 -1 5 -23 4 -22 0 -30 -2 -17 -4z"/>
<path d="M4158 1213 c12 -2 30 -2 40 0 9 3 -1 5 -23 4 -22 0 -30 -2 -17 -4z"/>
<path d="M4308 1213 c12 -2 30 -2 40 0 9 3 -1 5 -23 4 -22 0 -30 -2 -17 -4z"/>
<path d="M4458 1213 c12 -2 30 -2 40 0 9 3 -1 5 -23 4 -22 0 -30 -2 -17 -4z"/>
<path d="M4608 1213 c12 -2 30 -2 40 0 9 3 -1 5 -23 4 -22 0 -30 -2 -17 -4z"/>
<path d="M4758 1213 c12 -2 30 -2 40 0 9 3 -1 5 -23 4 -22 0 -30 -2 -17 -4z"/>
<path d="M4908 1213 c12 -2 30 -2 40 0 9 3 -1 5 -23 4 -22 0 -30 -2 -17 -4z"/>
<path d="M5058 1213 c12 -2 30 -2 40 0 9 3 -1 5 -23 4 -22 0 -30 -2 -17 -4z"/>
<path d="M5223 1213 c9 -2 23 -2 30 0 6 3 -1 5 -18 5 -16 0 -22 -2 -12 -5z"/>
<path d="M5358 1213 c12 -2 30 -2 40 0 9 3 -1 5 -23 4 -22 0 -30 -2 -17 -4z"/>
<path d="M5508 1213 c12 -2 30 -2 40 0 9 3 -1 5 -23 4 -22 0 -30 -2 -17 -4z"/>
<path d="M5658 1213 c12 -2 30 -2 40 0 9 3 -1 5 -23 4 -22 0 -30 -2 -17 -4z"/>
<path d="M5823 1213 c9 -2 23 -2 30 0 6 3 -1 5 -18 5 -16 0 -22 -2 -12 -5z"/>
<path d="M5958 1213 c12 -2 30 -2 40 0 9 3 -1 5 -23 4 -22 0 -30 -2 -17 -4z"/>
<path d="M6108 1213 c12 -2 30 -2 40 0 9 3 -1 5 -23 4 -22 0 -30 -2 -17 -4z"/>
<path d="M6258 1213 c12 -2 30 -2 40 0 9 3 -1 5 -23 4 -22 0 -30 -2 -17 -4z"/>
<path d="M6408 1213 c12 -2 30 -2 40 0 9 3 -1 5 -23 4 -22 0 -30 -2 -17 -4z"/>
<path d="M6558 1213 c12 -2 30 -2 40 0 9 3 -1 5 -23 4 -22 0 -30 -2 -17 -4z"/>
<path d="M6708 1213 c12 -2 30 -2 40 0 9 3 -1 5 -23 4 -22 0 -30 -2 -17 -4z"/>
<path d="M6858 1213 c12 -2 30 -2 40 0 9 3 -1 5 -23 4 -22 0 -30 -2 -17 -4z"/>
<path d="M7008 1213 c12 -2 30 -2 40 0 9 3 -1 5 -23 4 -22 0 -30 -2 -17 -4z"/>
<path d="M7158 1213 c12 -2 30 -2 40 0 9 3 -1 5 -23 4 -22 0 -30 -2 -17 -4z"/>
<path d="M7308 1213 c12 -2 30 -2 40 0 9 3 -1 5 -23 4 -22 0 -30 -2 -17 -4z"/>
<path d="M7458 1213 c12 -2 30 -2 40 0 9 3 -1 5 -23 4 -22 0 -30 -2 -17 -4z"/>
<path d="M7608 1213 c12 -2 30 -2 40 0 9 3 -1 5 -23 4 -22 0 -30 -2 -17 -4z"/>
<path d="M7758 1213 c12 -2 30 -2 40 0 9 3 -1 5 -23 4 -22 0 -30 -2 -17 -4z"/>
<path d="M7908 1213 c12 -2 30 -2 40 0 9 3 -1 5 -23 4 -22 0 -30 -2 -17 -4z"/>
<path d="M8058 1213 c12 -2 30 -2 40 0 9 3 -1 5 -23 4 -22 0 -30 -2 -17 -4z"/>
<path d="M8208 1213 c12 -2 30 -2 40 0 9 3 -1 5 -23 4 -22 0 -30 -2 -17 -4z"/>
<path d="M8358 1213 c12 -2 30 -2 40 0 9 3 -1 5 -23 4 -22 0 -30 -2 -17 -4z"/>
<path d="M8508 1213 c12 -2 30 -2 40 0 9 3 -1 5 -23 4 -22 0 -30 -2 -17 -4z"/>
<path d="M8658 1213 c12 -2 30 -2 40 0 9 3 -1 5 -23 4 -22 0 -30 -2 -17 -4z"/>
<path d="M8808 1213 c12 -2 30 -2 40 0 9 3 -1 5 -23 4 -22 0 -30 -2 -17 -4z"/>
<path d="M8958 1213 c12 -2 30 -2 40 0 9 3 -1 5 -23 4 -22 0 -30 -2 -17 -4z"/>
<path d="M9108 1213 c12 -2 30 -2 40 0 9 3 -1 5 -23 4 -22 0 -30 -2 -17 -4z"/>
<path d="M9258 1213 c12 -2 30 -2 40 0 9 3 -1 5 -23 4 -22 0 -30 -2 -17 -4z"/>
<path d="M9408 1213 c12 -2 30 -2 40 0 9 3 -1 5 -23 4 -22 0 -30 -2 -17 -4z"/>
<path d="M9558 1213 c12 -2 30 -2 40 0 9 3 -1 5 -23 4 -22 0 -30 -2 -17 -4z"/>
<path d="M9708 1213 c12 -2 30 -2 40 0 9 3 -1 5 -23 4 -22 0 -30 -2 -17 -4z"/>
<path d="M9858 1213 c12 -2 30 -2 40 0 9 3 -1 5 -23 4 -22 0 -30 -2 -17 -4z"/>
<path d="M10008 1213 c12 -2 30 -2 40 0 9 3 -1 5 -23 4 -22 0 -30 -2 -17 -4z"/>
<path d="M644 366 c-11 -30 1 -51 29 -51 29 1 32 -2 17 -25 -8 -13 -12 -13
-32 -1 -21 13 -22 13 -9 -2 7 -10 19 -17 27 -17 29 0 46 74 22 98 -16 16 -47
15 -54 -2z m54 -19 c4 -20 -25 -34 -40 -19 -15 15 -1 44 19 40 10 -2 19 -11
21 -21z"/>
<path d="M729 356 c-14 -29 -4 -75 16 -83 23 -8 45 16 45 51 0 55 -41 76 -61
32z m46 -31 c0 -45 -28 -63 -40 -25 -10 33 3 72 23 68 13 -2 17 -13 17 -43z"/>
<path d="M898 333 c-2 -35 -7 -48 -18 -48 -19 0 -26 52 -8 58 8 2 8 4 -2 3
-16 -1 -28 -65 -13 -67 53 -9 53 -9 53 47 0 67 -8 71 -12 7z"/>
<path d="M941 336 c-16 -19 -11 -46 11 -60 14 -8 22 -7 35 8 17 18 17 18 -5 5
-19 -12 -24 -12 -32 1 -8 12 -3 16 21 18 22 2 29 8 27 20 -4 22 -41 27 -57 8z
m44 -6 c4 -6 -5 -10 -20 -10 -15 0 -24 4 -20 10 3 6 12 10 20 10 8 0 17 -4 20
-10z"/>
<path d="M1020 330 c-15 -28 5 -64 31 -57 13 4 19 1 16 -6 -2 -7 -14 -12 -26
-11 -15 0 -19 -2 -11 -10 21 -21 45 8 48 58 3 43 2 46 -22 46 -15 0 -30 -8
-36 -20z m45 -20 c0 -16 -6 -26 -17 -28 -14 -3 -18 3 -18 28 0 25 4 31 18 28
11 -2 17 -12 17 -28z"/>
<path d="M600 310 c0 -5 5 -10 10 -10 6 0 10 5 10 10 0 6 -4 10 -10 10 -5 0
-10 -4 -10 -10z"/>
</g>
</svg>
